<?xml version="1.0" standalone="no"?>
<!DOCTYPE svg PUBLIC "-//W3C//DTD SVG 20010904//EN"
 "http://www.w3.org/TR/2001/REC-SVG-20010904/DTD/svg10.dtd">
<svg version="1.0" xmlns="http://www.w3.org/2000/svg"
 width="48.000000pt" height="48.000000pt" viewBox="0 0 48.000000 48.000000"
 preserveAspectRatio="xMidYMid meet">

<g transform="translate(0.000000,48.000000) scale(0.100000,-0.100000)"
fill="#000000" stroke="none">
<path d="M125 254 c-58 -102 -104 -192 -101 -200 4 -11 45 -14 216 -14 171 0
212 3 216 14 6 15 -202 386 -216 386 -5 0 -56 -84 -115 -186z m211 -17 l91
-162 -94 -3 c-51 -1 -135 -1 -187 0 l-95 3 92 162 c51 89 94 162 97 162 3 0
46 -73 96 -162z"/>
<path d="M196 254 c-14 -31 -26 -58 -26 -60 0 -2 14 -4 30 -4 17 0 30 -2 30
-5 0 -12 -24 -55 -32 -55 -14 0 -9 -30 6 -36 8 -3 27 2 42 12 15 10 22 20 16
22 -8 2 -3 21 13 53 l25 49 -35 0 -35 0 15 36 c19 45 19 44 -4 44 -14 0 -27
-16 -45 -56z"/>
</g>
</svg>
