<?xml version="1.0" standalone="no"?>
<!DOCTYPE svg PUBLIC "-//W3C//DTD SVG 20010904//EN"
 "http://www.w3.org/TR/2001/REC-SVG-20010904/DTD/svg10.dtd">
<svg version="1.0" xmlns="http://www.w3.org/2000/svg"
 width="50.000000pt" height="50.000000pt" viewBox="0 0 50.000000 50.000000"
 preserveAspectRatio="xMidYMid meet">

<g transform="translate(0.000000,50.000000) scale(0.100000,-0.100000)"
fill="#000000" stroke="none">
<path d="M230 465 c-8 -9 -21 -13 -36 -9 -19 5 -26 1 -33 -19 -5 -13 -19 -27
-32 -30 -17 -5 -20 -11 -16 -29 4 -14 0 -29 -10 -40 -15 -17 -15 -19 0 -36 10
-11 14 -26 10 -40 -4 -18 -1 -24 16 -29 13 -3 27 -17 32 -30 7 -20 14 -24 31
-19 14 3 29 -1 40 -11 17 -15 19 -15 36 0 11 10 26 14 40 11 17 -5 24 -1 31
19 5 13 19 27 32 30 17 5 20 11 16 29 -4 14 0 29 10 40 15 17 15 19 0 36 -10
11 -14 26 -10 40 4 18 1 24 -16 29 -13 3 -27 17 -32 30 -7 20 -14 24 -33 19
-15 -4 -28 0 -36 9 -7 8 -16 15 -20 15 -4 0 -13 -7 -20 -15z m70 -50 c32 -17
60 -61 60 -95 0 -53 -57 -110 -110 -110 -53 0 -110 57 -110 110 0 33 28 78 58
94 35 20 66 20 102 1z"/>
<path d="M189 381 c-20 -20 -29 -39 -29 -61 0 -43 47 -90 90 -90 43 0 90 47
90 90 0 43 -47 90 -90 90 -22 0 -41 -9 -61 -29z"/>
<path d="M183 162 c-21 -3 -23 -9 -23 -73 0 -38 2 -69 5 -69 3 0 24 9 45 20
l40 20 40 -20 c21 -11 42 -20 45 -20 3 0 5 31 5 69 0 65 -2 70 -22 73 -13 2
-35 -3 -50 -12 -23 -13 -29 -13 -45 1 -10 8 -28 13 -40 11z"/>
</g>
</svg>
